<svg width="20" height="20" viewBox="0 0 20 20" fill="none" xmlns="http://www.w3.org/2000/svg">
<path fill-rule="evenodd" clip-rule="evenodd" d="M19 9.00025H2.999L10.292 1.70725C10.683 1.31625 10.683 0.68425 10.292 0.29325C9.901 -0.09775 9.269 -0.09775 8.878 0.29325L0.585 8.58625C-0.195 9.36525 -0.195 10.6353 0.585 11.4143L8.878 19.7073C9.073 19.9023 9.329 20.0002 9.585 20.0002C9.841 20.0002 10.097 19.9023 10.292 19.7073C10.683 19.3162 10.683 18.6842 10.292 18.2932L2.999 11.0002H19C19.553 11.0002 20 10.5532 20 10.0002C20 9.44725 19.553 9.00025 19 9.00025Z" fill="#213219"/>
</svg>
